<?xml version="1.0" standalone="no"?>
<!DOCTYPE svg PUBLIC "-//W3C//DTD SVG 20010904//EN"
 "http://www.w3.org/TR/2001/REC-SVG-20010904/DTD/svg10.dtd">
<svg version="1.0" xmlns="http://www.w3.org/2000/svg"
 width="1000.000000pt" height="1000.000000pt" viewBox="0 0 1000.000000 1000.000000"
 preserveAspectRatio="xMidYMid meet">
<metadata>
Created by potrace 1.14, written by Peter Selinger 2001-2017
</metadata>
<g transform="translate(0.000000,1000.000000) scale(0.100000,-0.100000)"
fill="#000000" stroke="none">
<path d="M4540 9029 c-241 -21 -463 -67 -680 -139 -415 -139 -746 -343 -1050
-649 -558 -562 -895 -1343 -1017 -2361 -24 -202 -24 -617 0 -790 39 -279 98
-514 233 -920 53 -162 104 -294 138 -362 258 -509 844 -1021 1703 -1487 l152
-82 80 43 81 43 0 70 c1 144 38 251 116 335 57 61 131 96 267 126 245 53 296
67 387 103 l95 37 -3 58 c-7 117 -72 318 -114 354 -8 6 -75 23 -149 37 -671
131 -1353 364 -1591 544 -178 135 -352 383 -428 609 -59 179 -98 667 -70 891
l11 84 81 88 c44 49 84 89 87 89 4 0 37 -43 75 -95 37 -52 69 -95 70 -95 2 0
39 43 82 95 43 52 83 95 88 95 5 0 43 -18 84 -41 l75 -41 91 91 c50 50 97 91
105 91 7 0 43 -28 79 -62 37 -34 81 -76 99 -92 l32 -29 142 93 c79 51 148 93
154 93 5 0 47 -21 92 -47 50 -29 88 -44 95 -40 7 4 65 47 128 94 63 47 120 89
127 93 6 4 37 -15 71 -43 l61 -51 50 60 c206 248 362 499 420 678 50 153 97
406 127 688 l7 70 29 -90 c151 -471 421 -1388 477 -1615 54 -222 83 -530 131
-1400 26 -467 26 -494 -4 -562 -43 -98 -146 -402 -146 -433 0 -7 60 -11 168
-11 117 -1 189 -6 242 -18 315 -70 629 -251 868 -500 l83 -86 93 142 c389 595
626 1158 696 1653 23 166 58 707 67 1030 16 634 -87 1083 -380 1655 -409 795
-987 1385 -1649 1683 -420 188 -892 267 -1358 226z m2265 -3224 c131 -64 195
-216 182 -434 -7 -113 -44 -265 -86 -353 -62 -130 -242 -273 -477 -377 -46
-21 -91 -47 -99 -57 -9 -12 -5 12 11 66 68 234 148 605 204 945 41 250 36 233
68 238 59 11 143 -1 197 -28z"/>
<path d="M3503 5295 c-36 -15 -47 -41 -45 -107 2 -113 79 -161 135 -86 26 35
27 114 1 158 -24 41 -51 52 -91 35z"/>
<path d="M4393 5295 c-36 -15 -47 -41 -45 -107 2 -113 79 -161 135 -86 26 35
27 114 1 158 -24 41 -51 52 -91 35z"/>
</g>
</svg>
