<svg width="504" height="162" viewBox="0 0 504 162" fill="none" xmlns="http://www.w3.org/2000/svg">
<path d="M440.69 82.5907C440.176 81.8736 440.42 80.821 441.006 80.1611C441.592 79.5011 442.435 79.1408 443.25 78.8008C448.771 76.4953 454.293 74.1897 459.815 71.8841C461.472 71.1922 463.225 70.4861 465.007 70.7114C466.788 70.9368 468.539 72.4662 468.326 74.2492C468.182 75.4563 467.194 76.4194 466.09 76.9287C464.986 77.438 463.757 77.5881 462.565 77.8272C455.878 79.1686 449.81 83.458 442.99 83.4171C442.143 83.412 441.184 83.2788 440.69 82.5907Z" fill="white"/>
<path d="M459.79 150.306C452.258 147.784 448.231 139.369 447.465 131.464C446.698 123.559 448.336 115.605 448.056 107.668C437.74 120.315 425.982 131.786 413.084 141.786C403.605 149.135 393.089 155.859 381.226 157.628C369.364 159.396 355.905 155.069 349.966 144.648C347.277 139.929 345.132 133.41 339.719 132.953C335.518 132.599 332.57 127.376 334.436 123.596C336.303 119.817 342.243 118.984 345.078 122.104C348.534 125.91 354.599 126.311 359.388 124.44C364.177 122.57 367.99 118.884 371.666 115.289C374.607 112.412 377.795 108.827 377.097 104.773C375.907 97.8606 365.899 97.7794 359.354 100.3C335.555 109.463 316.175 129.458 307.759 153.532C306.849 156.136 302.537 155.581 301.218 153.158C299.899 150.735 300.628 147.75 301.453 145.117C304.601 135.058 308.706 125.298 313.692 116.011C296.269 129.836 277.345 141.768 257.36 151.529C250.358 154.949 242.134 158.128 235.021 154.947C228.943 152.228 225.543 145.396 225.028 138.758C224.513 132.119 226.373 125.551 228.215 119.153C221.689 130.049 212.724 139.476 202.168 146.539C195.584 150.945 185.442 153.856 180.753 147.472C179.09 145.208 178.643 142.286 178.483 139.482C177.814 127.726 181.457 115.773 188.567 106.388C174.739 112.175 163.324 123.504 157.432 137.288C155.137 142.656 153.066 149.011 147.667 151.234C140.055 154.367 132.11 146.625 129.634 138.774C125.616 126.031 129.087 112.218 133.328 99.5482C139.164 82.1157 146.459 65.1717 155.11 48.9512C133.699 74.544 112.288 100.137 90.8761 125.729C87.4163 129.865 81.5333 134.329 77.3384 130.942C74.1759 128.389 75.0034 123.437 76.2031 119.553C82.5689 98.944 91.1337 79.0147 101.705 60.213C74.4857 89.9328 47.2661 119.653 20.0465 149.372C15.9735 153.82 8.06649 158.042 5 152.85C15.1484 148.422 22.8302 139.894 30.1792 131.613C60.7342 97.1818 91.2893 62.7507 121.844 28.3197C123.306 26.6726 126.307 28.4473 126.508 30.6403C126.708 32.8332 125.248 34.7898 123.891 36.5244C103.272 62.89 88.8112 94.0411 81.9809 126.808C110.608 93.1128 139.235 59.4179 167.862 25.7231C168.925 24.4722 170.525 23.0926 171.995 23.8229C173.734 24.6862 173.126 27.2863 172.265 29.0255C166.092 41.4875 159.919 53.9495 153.746 66.4116C143.357 87.3854 132.69 109.762 134.908 133.062C135.244 136.587 136.021 140.359 138.641 142.74C141.262 145.121 146.241 145.041 147.714 141.822C162.998 108.413 200.276 86.4496 236.906 89.2716C239.998 89.5099 244.155 91.7355 242.7 94.475C235.877 107.33 232.107 121.793 231.788 136.343C231.705 140.152 231.99 144.321 234.559 147.134C239.194 152.211 247.537 149.666 253.695 146.607C266.96 140.018 279.844 132.663 292.261 124.589C307.344 114.783 322.732 102.47 326.884 84.966C332.901 59.6007 342.782 35.1557 356.081 12.7339C358.461 8.72191 362.129 4.2161 366.709 5.09999C372.044 6.12941 373.181 13.2276 372.694 18.6384C370.812 39.5393 362.845 59.8564 350.018 76.4651C337.878 92.1827 320.961 105.707 316.763 125.118C327.505 110.627 342.872 99.6196 360.048 94.1123C367.515 91.7185 377.305 91.1131 381.583 97.6841C384.725 102.512 383.183 109.047 380.322 114.047C374.603 124.041 363.874 130.994 352.415 132.132C351.763 139.919 357.763 147.178 365.087 149.903C372.411 152.627 380.644 151.589 388.077 149.18C414.271 140.689 432.207 117.217 449.076 95.4545C450.867 93.1437 454.986 91.0646 456.025 93.7974C456.244 94.375 456.195 95.0149 456.144 95.6306C455.118 107.816 454.092 120.001 453.066 132.186C452.498 138.924 459.519 144.444 466.281 144.492C473.042 144.54 479.191 140.631 484.312 136.216C489.434 131.801 494.069 126.682 500 123.434C495.478 135.092 485.857 144.666 474.178 149.131C469.591 150.884 464.446 151.865 459.79 150.306ZM185.752 143.144C187.958 146.257 192.828 145.002 196.158 143.138C207.737 136.655 217.22 126.491 222.884 114.49C225.732 108.455 227.728 101.836 232.16 96.8462C220.097 94.4818 207.013 98.0753 197.85 106.269C188.687 114.463 183.659 127.066 184.665 139.317C184.775 140.655 184.976 142.049 185.752 143.144ZM330.65 90.8955C337.875 82.7558 344.49 74.0744 350.421 64.9483C353.892 59.6063 357.138 54.0956 359.682 48.2549C364.646 36.8575 366.851 24.2695 366.056 11.8633C360.197 17.9049 355.301 24.879 351.609 32.4425C348.742 38.3161 346.608 44.5147 344.482 50.695C339.871 64.0952 335.261 77.4953 330.65 90.8955Z" fill="#FFFFFE"/>
</svg>
