<?xml version="1.0" encoding="utf-8"?><!DOCTYPE svg PUBLIC "-//W3C//DTD SVG 1.1//EN" "http://www.w3.org/Graphics/SVG/1.1/DTD/svg11.dtd"><svg version="1.1" id="Contours" xmlns="http://www.w3.org/2000/svg" xmlns:xlink="http://www.w3.org/1999/xlink" x="0px" y="0px" width="235.284271px" height="235.284271px" viewBox="-0.000000 -0.000000 235.284271 220.632080" enable-background="new 0 0 235.284271 235.284271" xml:space="preserve" stroke="black" fill="none" stroke-linecap='round' stroke-linejoin='round'><path class="selected"  fill="#000000" opacity="1.000000" stroke="none" 
 	d="
M233.344285 149.547474 C232.302857 158.828205 229.460083 167.091908 224.757554 174.467030 C219.914093 182.063206 214.379334 189.234013 208.918168 196.416920 C202.259858 205.174381 192.514771 208.570728 182.277634 210.456974 C172.741654 212.214024 163.040360 213.052998 153.458832 214.589237 C142.092499 216.411640 130.831025 219.008091 119.416459 220.360890 C113.346161 221.080296 107.005433 220.225330 100.864495 219.458546 C93.520333 218.541508 86.172142 217.318043 78.984673 215.572651 C70.414452 213.491474 62.148766 209.973606 53.510579 208.392048 C34.014969 204.822636 20.822987 192.174915 10.246695 177.256504 C4.774017 169.537007 2.058277 159.041889 0.681303 149.430531 C-1.433731 134.667469 1.617545 120.013729 6.498616 105.859661 C8.915539 98.851086 10.532700 91.518040 13.478077 84.752506 C17.310662 75.949047 23.757607 69.261524 32.293274 64.426083 C36.698044 61.930790 41.356827 58.841267 44.133996 54.804657 C46.990647 50.652535 48.011727 45.099663 49.280846 40.021000 C52.209649 28.300759 58.026780 17.907194 63.944718 7.601463 C66.729035 2.752747 70.447510 3.392957 73.316086 8.872746 C77.756325 17.354860 82.228432 25.832913 86.266648 34.508362 C88.890740 40.145825 92.188179 43.131626 99.000473 42.712685 C109.294548 42.079621 119.657624 42.452625 129.988694 42.594593 C134.067826 42.650643 136.610795 41.481133 138.457062 37.403603 C144.355607 24.376526 152.712906 12.891827 162.203858 2.253491 C165.469376 -1.406790 168.903626 -0.532869 170.297257 4.327686 C173.121445 14.177607 175.772873 24.080137 178.298768 34.011028 C179.351670 38.150685 181.747284 40.804249 185.613205 42.316879 C195.011048 45.994015 202.433762 51.838230 208.010102 60.492970 C212.410904 67.323208 218.311280 73.169224 223.005204 79.833050 C229.423462 88.944851 234.767457 98.888622 235.166672 110.205952 C235.609620 122.763950 234.685959 135.370701 234.303559 147.954579 C234.292206 148.328251 233.677613 148.683582 233.344285 149.547474 M203.844285 190.547474 C205.141205 188.917225 206.364594 187.221638 207.746491 185.666920 C220.516251 171.300221 226.836869 154.431004 227.332062 135.303013 C227.418259 131.973301 226.706788 128.487751 227.457047 125.334294 C230.369248 113.093746 226.657166 102.019283 220.842682 91.877812 C215.981324 83.398785 208.724656 76.320713 203.533310 67.995785 C197.873810 58.920101 190.620133 52.629872 180.555848 48.990936 C177.709870 47.961929 175.010895 44.945675 173.478760 42.161598 C168.975388 33.978424 167.308640 24.872311 166.328125 15.649010 C166.216919 14.603050 165.883194 13.580748 165.652649 12.547476 C164.533677 13.063658 163.057145 13.288826 162.358536 14.147150 C159.556107 17.590349 156.756302 21.080006 154.400086 24.831673 C150.852555 30.480156 147.351639 36.203537 144.431138 42.188004 C141.164963 48.880783 136.311631 51.827339 128.859086 51.627052 C117.538605 51.322815 106.192154 51.237972 94.879868 51.668240 C88.505723 51.910687 84.867035 48.866264 82.379120 43.760697 C78.532807 35.867474 74.952744 27.844780 71.153557 19.927965 C70.695046 18.972513 69.516381 17.644428 68.780030 17.709892 C67.691788 17.806637 66.167550 18.772722 65.751244 19.758230 C61.728905 29.279961 56.707741 38.401463 55.236237 48.917885 C54.376305 55.063625 53.571637 61.594349 46.680363 64.797932 C44.010731 66.038967 41.701912 68.033314 39.139298 69.531529 C29.929005 74.916271 21.902600 81.578755 18.495425 92.034184 C15.326056 101.759854 12.424191 111.653935 10.507676 121.684635 C8.443648 132.487400 6.313284 143.256580 9.148314 154.616779 C13.565127 172.315296 24.112599 184.647297 39.182194 193.966358 C45.833828 198.079731 53.348595 199.278416 60.632325 201.327610 C70.381546 204.070439 79.668976 208.460957 90.126885 208.663838 C95.151055 208.761295 100.128304 210.441441 105.168404 210.773762 C110.945290 211.154652 116.825364 211.344196 122.557953 210.701374 C131.182129 209.734272 139.688385 207.757099 148.297760 206.605366 C157.678711 205.350437 167.274491 205.282292 176.492844 203.345921 C186.191514 201.308689 196.372345 199.427311 203.844285 190.547474 z"/><path class="selected"  fill="#000000" opacity="1.000000" stroke="none" 
 	d="
M147.594285 113.297474 C140.749100 107.335873 136.272614 100.440563 135.344483 91.563908 C134.514435 83.625355 140.168274 79.051693 145.337784 75.368206 C158.802140 65.774342 172.252732 70.171124 181.125840 82.804066 C188.239090 92.931484 182.185425 109.115116 169.322388 113.561978 C162.136795 116.046086 155.001984 117.085568 147.594285 113.297474 M141.344300 88.047482 C141.028840 88.398693 140.373993 88.863865 140.448014 89.084263 C141.931000 93.500363 147.792374 96.597729 152.539338 95.547482 C156.927598 94.576603 160.876954 89.664646 160.210038 85.250179 C159.955414 83.564732 158.502060 81.216351 157.050904 80.700421 C150.436066 78.348660 145.138993 80.700207 141.344300 88.047482 M166.344285 95.047474 C164.008881 97.191059 162.570435 99.455074 164.847031 102.578373 C167.358857 106.024334 170.670289 106.304707 174.300019 105.054669 C177.756440 103.864308 177.595017 100.794842 177.286393 98.034931 C176.871445 94.324246 171.745759 92.702816 166.344285 95.047474 z"/><path class="selected"  fill="#000000" opacity="1.000000" stroke="none" 
 	d="
M101.344285 90.547474 C101.283890 96.001698 101.940415 100.971981 98.927079 105.554691 C94.999787 111.527340 89.250596 114.240750 82.612679 115.514897 C77.561905 116.484387 72.553856 118.800289 67.408638 115.202580 C60.917954 110.664074 56.862893 105.119785 56.225907 96.849758 C55.434754 86.578129 58.978180 78.714558 67.732079 73.614315 C79.379197 66.828404 95.823006 72.432575 100.359688 87.958019 C100.573014 88.688076 101.010949 89.352490 101.344285 90.547474 M65.844285 82.547474 C61.940865 86.060314 63.001755 92.490376 65.392922 95.157818 C68.825554 98.987080 72.458588 97.835888 76.308602 96.105694 C81.814164 93.631458 82.864663 89.088749 82.356110 83.700459 C81.962586 79.530926 78.441620 76.462887 74.502549 77.667957 C71.607476 78.553631 69.051415 80.547466 65.844285 82.547474 M90.844285 97.547474 C88.362992 97.695439 85.447983 97.100582 83.533104 98.218632 C81.904580 99.169499 81.428681 102.094463 80.442818 104.146008 C83.060975 105.128826 85.860001 107.247036 88.260666 106.864605 C93.719826 105.994938 94.474595 103.250042 90.844285 97.547474 z"/><path class="selected"  fill="#000000" opacity="1.000000" stroke="none" 
 	d="
M110.344285 145.547474 C112.677620 144.562779 115.881165 143.751667 116.032914 142.553929 C116.279282 140.609364 114.800316 138.226353 113.545433 136.369114 C112.097039 134.225483 109.581917 132.712177 108.452843 130.462086 C106.121254 125.815571 107.550942 121.498142 111.654793 118.736965 C116.204583 115.675762 121.744217 115.742436 125.227265 118.946110 C126.451050 120.071743 127.691544 121.206562 128.743561 122.485920 C130.928772 125.143421 132.407990 127.983555 130.046128 131.346851 C129.141465 132.635075 127.936585 133.813053 127.399842 135.240986 C125.497742 140.301167 128.092087 143.564076 133.351975 144.654377 C142.946000 146.643086 152.468720 149.068272 160.173249 155.818333 C162.838334 158.153263 163.479874 161.164982 161.563996 163.539662 C159.703568 165.845616 157.195542 164.548145 154.848801 162.674992 C141.456604 151.985340 126.019684 152.813542 110.121132 154.321613 C100.997971 155.187000 93.198304 157.618824 86.432076 163.736515 C85.968964 164.155247 83.679833 163.198734 82.818581 162.316746 C82.196297 161.679463 81.993706 159.633595 82.527642 159.020878 C87.763764 153.012180 94.694802 149.760929 102.188973 147.559605 C104.719429 146.816334 107.291329 146.214146 110.344285 145.547474 z"/><path class="selected"  fill="#000000" opacity="1.000000" stroke="none" 
 	d="
M57.094285 123.797474 C59.286736 131.794575 58.009644 138.684040 52.029988 144.376911 C48.785691 147.465611 43.602211 147.419697 40.485550 144.188740 C36.367840 139.920017 36.260308 137.266438 40.163392 133.246296 C43.162892 130.156819 46.283757 127.185063 49.277386 124.090077 C51.683297 121.602711 54.115651 120.865376 57.094285 123.797474 M50.344285 132.047474 C48.344285 133.989247 46.264229 135.859547 44.412541 137.933720 C44.046681 138.343556 44.559529 139.537815 44.667153 140.370350 C46.590970 139.564625 49.324650 139.260060 50.217888 137.816578 C51.170193 136.277668 54.472878 133.921070 50.344285 132.047474 z"/></svg>