<svg width="80" height="81" viewBox="0 0 80 81" fill="none" xmlns="http://www.w3.org/2000/svg">
<g clip-path="url(#clip0_48_1752)">
<path d="M1.69803 59.0389C1.13147 56.7246 0.438329 54.6027 0.0517641 52.4264C-0.14151 51.3383 0.263742 50.1531 0.331841 49.0078C0.70261 42.7724 2.57618 36.893 4.82058 31.1516C5.7782 28.7019 7.54292 26.7034 10 25.3297C11.7338 24.3604 13.4265 23.0974 14.6992 21.5943C15.6989 20.4137 16.2968 18.7181 16.6033 17.1589C17.4322 12.9422 19.6485 9.34167 21.4481 5.56214C22.3139 3.74384 24.0743 3.87919 25.122 5.87144C26.3876 8.2779 27.3869 10.8228 28.5673 13.2762C29.1149 14.4145 29.7535 15.5239 30.4848 16.551C30.7478 16.9203 31.4013 17.1929 31.8803 17.1984C36.1279 17.2477 40.381 17.3299 44.6206 17.1381C45.4432 17.1008 46.5635 16.0745 46.9496 15.2312C48.9067 10.956 51.9054 7.393 54.6212 3.64101C54.9475 3.19022 55.8965 2.94574 56.5045 3.02215C56.9745 3.08121 57.6009 3.72227 57.7484 4.22476C58.7293 7.56587 59.5927 10.9413 60.5098 14.3014C60.9252 15.8236 61.8742 16.6098 63.3856 17.3305C65.5825 18.3782 67.7854 19.8306 69.3729 21.6463C72.1284 24.7977 74.5645 28.2622 76.8486 31.781C78.5453 34.3948 79.728 37.343 79.8683 40.5391C80.1348 46.6076 80.2309 52.7247 77.7735 58.414C76.4636 61.4468 74.5834 64.2711 72.6911 67.0028C71.1774 69.1881 69.4353 71.3698 66.7793 72.2668C63.9864 73.21 61.1408 74.089 58.2494 74.6266C54.1587 75.3872 50.0056 75.8138 45.8778 76.3737C43.3011 76.7232 40.7159 77.3629 38.1455 77.312C35.368 77.2569 32.5723 76.6918 29.8401 76.0948C25.0296 75.0438 20.2153 73.9557 15.4967 72.5643C13.422 71.9525 11.3048 70.8696 9.68965 69.451C6.85264 66.9593 3.95826 64.4009 2.37855 60.7979C2.14717 60.2702 1.92465 59.7386 1.69803 59.0389ZM74.4437 59.5488C74.6443 59.3482 74.9416 59.1833 75.0308 58.9417C76.2019 55.7705 77.1259 52.5408 77.1613 49.1225C77.1731 47.9901 76.9575 46.8115 77.1991 45.7331C78.2045 41.2447 77.0822 37.1535 74.757 33.4237C72.8253 30.3253 70.4952 27.4736 68.3143 24.5328C66.4784 22.0574 64.2047 20.1856 61.1986 19.2247C60.4298 18.979 59.5668 18.3573 59.1916 17.6667C57.5524 14.6503 56.8995 11.3164 56.4187 7.94711C56.3576 7.51923 56.1795 7.10806 56.0556 6.68914C55.6486 6.93678 55.0925 7.08746 54.8583 7.44751C53.0935 10.1602 51.1324 12.7895 49.7405 15.6887C48.212 18.8724 46.1207 20.2854 42.558 19.9995C39.4074 19.7467 36.2104 19.7899 33.0526 19.9932C30.2273 20.175 28.5585 19.0315 27.5126 16.5039C26.4725 13.9903 25.2685 11.5445 24.1327 9.07068C23.7107 8.15161 22.9582 8.02447 22.5285 8.85604C20.8126 12.1761 19.2241 15.557 18.6832 19.3236C18.4409 21.0107 18.3589 22.8425 16.836 23.9757C15.6087 24.8889 14.2598 25.6508 12.9182 26.3957C9.7248 28.1689 7.06531 30.6613 6.23048 34.1523C5.29383 38.0691 3.48436 41.7428 3.30928 45.9051C3.18654 48.823 2.39973 51.6936 3.04264 54.6626C4.47775 61.2902 8.36567 66.0565 14.2299 69.1807C16.1435 70.2002 18.3955 70.6039 20.5147 71.2128C23.1004 71.9559 25.6928 72.6902 28.3131 73.295C30.7071 73.8476 33.1261 74.4156 35.5639 74.6168C37.6451 74.7886 39.7821 74.5615 41.8699 74.3084C44.6966 73.9656 47.4911 73.3627 50.3154 72.9938C53.5054 72.5772 56.7723 72.5679 59.8976 71.886C63.6102 71.076 67.3745 70.0478 69.7606 66.6124C71.3187 64.3691 72.8825 62.1298 74.4437 59.5488Z" fill="#FFFFFE"/>
<path d="M44.4447 58.6139C41.1531 60.8633 37.4464 59.2452 36.3294 56.1018C35.8512 54.7562 34.5845 54.9498 33.5769 54.6131C32.7841 54.3483 31.9592 54.1113 31.2515 53.6893C30.9096 53.4854 30.5317 52.7565 30.6553 52.4925C30.8484 52.0803 31.448 51.6182 31.8858 51.6076C33.0235 51.5801 34.1663 51.8755 35.308 51.8813C37.5032 51.8927 39.0231 49.8156 38.4813 47.7123C38.1309 46.3517 38.5786 45.2202 39.669 44.3608C40.7972 43.4714 41.9912 43.7794 43.0035 44.4738C44.1072 45.2308 44.0021 46.5376 43.8067 47.6566C43.5171 49.3153 43.7676 49.7989 45.407 49.8539C46.4807 49.8898 47.6073 49.6643 48.6147 49.925C49.3714 50.1209 49.9761 50.904 50.6484 51.4257C49.9525 51.9239 49.2451 52.853 48.5629 52.8348C46.8822 52.7901 46.6559 53.4275 46.4629 54.9477C46.3035 56.203 45.2095 57.3397 44.4447 58.6139ZM42.1501 56.4894C42.4705 56.1689 42.854 55.8907 43.1014 55.5213C44.9674 52.7346 44.9589 52.7294 42.5055 51.7421C42.4572 51.7227 42.4103 51.6226 42.3863 51.6306C41.457 51.9411 40.3372 52.0383 39.6533 52.6347C38.8394 53.3444 38.2837 54.4215 39.0752 55.662C39.8103 56.814 40.9043 56.647 42.1501 56.4894Z" fill="#FFFFFE"/>
<path d="M18.6097 38.048C18.1281 37.2896 17.2793 36.4561 17.447 35.9823C17.6669 35.361 18.6949 34.6262 19.364 34.6372C21.474 34.6718 23.5782 35.0364 25.6857 35.2638C26.7708 35.3808 27.8569 35.491 28.9446 35.5797C30.0322 35.6684 31.2256 35.9666 31.1925 37.1711C31.164 38.2098 30.1735 38.7276 28.9927 38.6562C25.562 38.4486 22.1276 38.3029 18.6097 38.048Z" fill="#FFFFFE"/>
<path d="M53.028 37.9631C52.4532 38.0764 52.0104 38.1198 51.6502 38.3153C50.2033 39.1007 49.1358 38.4762 48.7456 37.1749C48.3039 35.7015 49.734 35.2658 50.7531 34.9403C52.2612 34.4587 53.8392 34.1728 55.4039 33.8979C57.0497 33.6088 58.7121 33.3011 60.3731 33.2644C61.0899 33.2486 61.8213 33.8934 62.5461 34.2381C61.972 34.7999 61.4914 35.65 60.8071 35.8719C58.3075 36.6823 55.7399 37.2832 53.028 37.9631Z" fill="#FFFFFE"/>
</g>
<defs>
<clipPath id="clip0_48_1752">
<rect width="80" height="80" fill="white" transform="translate(0 0.161621)"/>
</clipPath>
</defs>
</svg>
