<?xml version="1.0" encoding="utf-8"?><!DOCTYPE svg PUBLIC "-//W3C//DTD SVG 1.1//EN" "http://www.w3.org/Graphics/SVG/1.1/DTD/svg11.dtd"><svg version="1.1" id="Contours" xmlns="http://www.w3.org/2000/svg" xmlns:xlink="http://www.w3.org/1999/xlink" x="0px" y="0px" width="235.193054px" height="235.193054px" viewBox="-0.000000 -0.000000 235.193054 218.532135" enable-background="new 0 0 235.193054 235.193054" xml:space="preserve" stroke="black" fill="none" stroke-linecap='round' stroke-linejoin='round'><path class="selected"  fill="#000000" opacity="1.000000" stroke="none" 
 	d="
M0.508586 154.026715 C-0.742318 144.821416 0.548996 135.481483 1.854708 126.283798 C4.704135 106.211881 8.431136 84.540544 23.167553 70.617933 C32.029363 62.245507 44.973268 56.335937 47.671263 44.446866 C50.575318 31.649724 55.581466 19.332125 62.428242 8.137394 C63.629652 6.173042 65.264523 4.021589 67.566954 3.992030 C70.011231 3.960649 71.720560 6.318979 72.945820 8.434213 C78.341786 17.749566 83.008590 27.487166 86.889492 37.528622 C88.475233 41.631571 93.896970 42.307765 98.295667 42.322625 C107.272936 42.352952 116.250205 42.383280 125.227474 42.413607 C127.611055 42.421659 130.067569 42.416074 132.270429 41.505619 C136.543602 39.739492 138.762881 35.134310 140.830225 30.998454 C145.820992 21.014099 152.058649 11.653805 159.352279 3.204068 C160.576519 1.785775 161.989583 0.304185 163.844687 0.041686 C166.975734 -0.401359 169.382178 2.767828 170.536691 5.711777 C175.454581 18.252143 173.002481 35.640627 184.775191 42.186596 C209.364190 55.858794 227.527394 80.579567 233.226620 108.130731 C238.925845 135.681896 232.061076 165.579948 214.914439 187.885567 C208.823620 195.808957 201.204919 202.987679 191.755928 206.242634 C154.756953 218.987910 114.420367 221.900444 75.974174 214.602744 C59.023259 211.385192 42.147119 206.075274 28.045975 196.133247 C13.944831 186.191220 2.831814 171.123172 0.508584 154.026717 z"/></svg>