<?xml version="1.0" encoding="utf-8"?><!DOCTYPE svg PUBLIC "-//W3C//DTD SVG 1.1//EN" "http://www.w3.org/Graphics/SVG/1.1/DTD/svg11.dtd"><svg version="1.1" id="Contours" xmlns="http://www.w3.org/2000/svg" xmlns:xlink="http://www.w3.org/1999/xlink" x="0px" y="0px" width="235.340317px" height="235.340317px" viewBox="-0.000000 -0.000000 235.340317 218.591568" enable-background="new 0 0 235.340317 235.340317" xml:space="preserve" stroke="black" fill="none" stroke-linecap='round' stroke-linejoin='round'><path class="selected"  fill="#000000" opacity="1.000000" stroke="none" 
 	d="
M4.995176 164.828132 C3.328507 158.020042 1.289456 151.778083 0.152277 145.375938 C-0.416289 142.174995 0.775864 138.688316 0.976195 135.319267 C2.066905 116.976272 7.578476 99.680450 14.180962 82.790634 C16.998036 75.584289 22.189425 69.705291 29.417610 65.664123 C34.517830 62.812660 39.497418 59.097091 43.241463 54.675499 C46.182377 51.202365 47.941284 46.214263 48.842888 41.627433 C51.281143 29.222961 57.800991 18.631219 63.095051 7.512773 C65.641979 2.163779 70.820805 2.561931 73.902889 8.422660 C77.625744 15.501850 80.565655 22.988479 84.037846 30.205707 C85.648831 33.554252 87.527539 36.817771 89.678913 39.839275 C90.452374 40.925548 92.375057 41.727539 93.783886 41.743877 C106.279438 41.888839 118.791073 42.130718 131.262753 41.566291 C133.682781 41.456775 136.978481 38.437568 138.114208 35.956634 C143.871487 23.380081 152.693066 12.898719 160.682141 1.861288 C161.641995 0.535174 164.433727 -0.184045 166.222408 0.040728 C167.604962 0.214469 169.447735 2.100316 169.881726 3.578534 C172.767315 13.407255 175.307049 23.337072 178.004849 33.221569 C179.227032 37.699504 182.018643 40.012115 186.464840 42.132484 C192.927548 45.214527 199.408047 49.487068 204.078076 54.828266 C212.183987 64.099151 219.350323 74.290702 226.069653 84.642105 C231.060986 92.331489 234.540219 101.004188 234.953015 110.406234 C235.736828 128.258338 236.019528 146.253486 228.790600 162.989906 C224.936993 171.911811 219.406124 180.220115 213.839489 188.256156 C209.386303 194.684806 204.261608 201.102760 196.448437 203.741401 C188.232403 206.516105 179.861080 209.102027 171.355526 210.683448 C159.321514 212.920890 147.104092 214.175773 134.961300 215.822883 C127.381115 216.851097 119.776051 218.733009 112.214833 218.583122 C104.044064 218.421135 95.819760 216.758628 87.782238 215.002586 C73.631008 211.910835 59.468563 208.709816 45.587387 204.616615 C39.484307 202.816963 33.255955 199.631340 28.504559 195.458168 C20.158783 188.127998 11.644242 180.601905 6.997110 170.002922 C6.316457 168.450508 5.661844 166.886680 4.995176 164.828132 M218.995175 166.328132 C219.585201 165.738121 220.459652 165.253151 220.722210 164.542198 C224.167416 155.213340 226.885418 145.712440 226.989727 135.656547 C227.024288 132.325477 226.390103 128.858207 227.100704 125.685951 C230.058438 112.481926 226.756954 100.446739 219.916638 89.474601 C214.234249 80.359840 207.379605 71.970771 200.963803 63.319892 C195.563076 56.037670 188.874432 50.531417 180.031124 47.704753 C177.769512 46.981857 175.230923 45.152839 174.127041 43.121501 C169.304959 34.248024 167.384228 24.440437 165.969876 14.528759 C165.790264 13.270046 165.266293 12.060472 164.901867 10.828135 C163.704479 11.556630 162.068600 11.999870 161.379544 13.059063 C156.188015 21.039259 150.419003 28.773952 146.324414 37.302612 C141.827938 46.668350 135.675884 50.824947 125.195187 49.983924 C115.926861 49.240184 106.522015 49.367431 97.232495 49.965332 C88.921353 50.500263 84.012058 47.136276 80.935238 39.700588 C77.875561 32.306346 74.333790 25.111351 70.992436 17.834028 C69.751049 15.130357 67.537449 14.756324 66.273190 17.202615 C61.225636 26.969362 56.552548 36.915268 54.961312 47.995658 C54.248581 52.958664 54.007240 58.347385 49.527310 61.680854 C45.917004 64.367240 41.948918 66.608535 38.002251 68.800003 C28.607964 74.016380 20.784395 81.348251 18.328552 91.617858 C15.573153 103.140136 10.250124 113.947441 9.735094 126.191795 C9.374031 134.775703 7.059431 143.220100 8.950695 151.954307 C13.172428 171.451088 24.609745 185.472374 41.860935 194.662956 C47.490170 197.661949 54.115082 198.849495 60.349140 200.640983 C67.955853 202.826973 75.581967 204.986854 83.290135 206.766151 C90.332661 208.391792 97.448956 210.062782 104.620152 210.654716 C110.742573 211.160087 117.029217 210.492027 123.170971 209.747291 C131.486386 208.738990 139.707165 206.965324 148.015576 205.880134 C157.399609 204.654472 167.010128 204.627159 176.204159 202.621193 C187.125546 200.238349 198.199322 197.213707 205.218624 187.107627 C209.802166 180.508461 214.402401 173.920890 218.995175 166.328132 z"/><path class="selected"  fill="#000000" opacity="1.000000" stroke="none" 
 	d="
M130.745175 163.578132 C121.062313 170.195060 110.157978 165.435127 106.872006 156.188072 C105.465321 152.229515 101.738957 152.799079 98.774975 151.808784 C96.442707 151.029563 94.015972 150.332481 91.934124 149.090950 C90.928425 148.491188 89.816715 146.346931 90.180348 145.570503 C90.748310 144.357811 92.512219 142.998497 93.800038 142.967338 C97.146816 142.886390 100.508915 143.755165 103.867344 143.772483 C110.325222 143.805778 114.796200 137.695503 113.202519 131.508232 C112.171574 127.505745 113.488751 124.177131 116.696232 121.648796 C120.015331 119.032470 123.527645 119.938674 126.505795 121.981369 C129.752346 124.208152 129.443295 128.052452 128.868572 131.344352 C128.016613 136.223930 128.753506 137.646522 133.576107 137.808143 C136.734570 137.914009 140.049023 137.250434 143.012478 138.017540 C145.238476 138.593727 147.017285 140.897529 148.995175 142.432243 C146.947888 143.897544 144.866818 146.630882 142.859951 146.577446 C137.915951 146.445793 137.250088 148.320808 136.682369 152.792869 C136.213574 156.485771 132.995175 159.829612 130.745175 163.578132 M123.995175 157.328132 C124.937817 156.385475 126.065975 155.567024 126.793591 154.480400 C132.282879 146.282707 132.257855 146.267295 125.040676 143.362983 C124.898464 143.305748 124.760678 143.011329 124.690075 143.034919 C121.956097 143.948234 118.662174 144.234321 116.650242 145.988670 C114.255886 148.076469 112.621060 151.245048 114.949619 154.894355 C117.111996 158.283195 120.330181 157.791984 123.995175 157.328132 z"/><path class="selected"  fill="#000000" opacity="1.000000" stroke="none" 
 	d="
M54.745175 103.078132 C53.328510 100.847030 50.831627 98.395149 51.324856 97.001503 C51.971756 95.173645 54.995918 93.012229 56.964031 93.044479 C63.171299 93.146209 69.361363 94.218940 75.561131 94.887718 C78.753063 95.232040 81.948223 95.556114 85.147824 95.817001 C88.347523 96.077911 91.858189 96.955131 91.760830 100.498558 C91.676869 103.554275 88.762936 105.077552 85.289486 104.867378 C75.197285 104.256706 65.094067 103.828132 54.745175 103.078132 z"/><path class="selected"  fill="#000000" opacity="1.000000" stroke="none" 
 	d="
M155.995175 102.828132 C154.304241 103.161468 153.001599 103.289047 151.941982 103.864265 C147.685696 106.174812 144.545407 104.337585 143.397564 100.509361 C142.098004 96.175148 146.305065 94.893493 149.303143 93.935936 C153.739544 92.518989 158.381497 91.678016 162.984661 90.869316 C167.826122 90.018745 172.716564 89.113769 177.602658 89.005859 C179.711376 88.959281 181.863033 90.856185 183.995175 91.870208 C182.306378 93.522850 180.892544 96.023574 178.879528 96.676216 C171.526180 99.060302 163.973049 100.828132 155.995175 102.828132 z"/></svg>