<svg width="80" height="81" viewBox="0 0 80 81" fill="none" xmlns="http://www.w3.org/2000/svg">
<g clip-path="url(#clip0_48_1757)">
<path d="M2.06417 60.1825C0.866916 56.9594 -0.331077 53.8338 0.0838831 50.5252C0.599953 46.4105 0.761174 42.2096 2.39669 38.2809C2.93809 36.9804 3.09601 35.5255 3.51209 34.1666C4.77974 30.0263 7.38124 26.9091 11.0133 24.6266C14.0436 22.7223 15.8556 20.2402 16.7953 16.5752C17.8182 12.5862 19.9882 8.88144 21.7604 5.10071C22.2718 4.00962 24.0943 4.40404 24.7722 5.72175C26.3761 8.83978 27.976 11.9608 29.5123 15.1124C30.311 16.751 31.3619 17.6101 33.3452 17.5096C36.613 17.344 39.9023 17.3365 43.1691 17.5118C45.1925 17.6204 46.4623 16.7728 47.1263 15.0913C48.7399 11.0047 51.685 7.80388 54.1346 4.27822C54.5808 3.63614 55.6382 2.87054 56.2138 3.00659C56.9202 3.17356 57.7169 4.13812 57.9499 4.9152C58.7677 7.64273 59.382 10.4327 60.0312 13.2089C60.517 15.2864 61.4097 16.751 63.6407 17.6355C66.1784 18.6417 68.3188 20.4545 69.9657 22.781C71.9582 25.5956 74.1812 28.2478 76.1558 31.0741C78.7171 34.7401 80.2122 38.8899 79.9755 43.3512C79.6995 48.5536 79.9979 53.9277 77.6285 58.79C76.2937 61.5293 74.7111 64.1805 72.9562 66.6714C71.7292 68.4131 70.0547 69.8497 68.5206 71.3623C66.394 73.459 63.4366 73.643 60.7888 74.3365C58.0355 75.0577 55.0969 75.0474 52.2529 75.4517C48.4253 75.9958 44.6255 76.7718 40.785 77.1747C38.4098 77.4239 35.9573 77.3661 33.5828 77.0829C30.6282 76.7306 27.6998 76.0836 24.7961 75.4087C23.0714 75.0079 21.4471 74.1769 19.723 73.7719C16.4218 72.9963 13.1671 72.1755 10.4108 70.0569C6.95459 67.4002 3.90055 64.4005 2.06417 60.1825ZM76.9898 50.5201C77.1028 48.589 77.1738 46.6543 77.3372 44.7274C77.7419 39.9522 76.209 35.7196 73.5628 31.8884C71.6885 29.1748 69.4685 26.7025 67.517 24.0389C66.0675 22.0605 64.1869 20.7432 61.968 19.8456C60.5543 19.2737 59.0223 18.7228 58.5729 17.1401C57.7077 14.0927 57.0548 10.9852 56.3045 7.90484C56.2255 7.58041 56.0845 7.27109 55.9722 6.95477C55.6427 7.11401 55.1768 7.1838 55.0047 7.44626C53.1732 10.2388 51.1424 12.939 49.6585 15.9104C48.1044 19.0222 46.1284 20.5562 42.4998 20.2431C38.9667 19.9384 35.3846 20.1024 31.8286 20.212C30.3134 20.2587 29.1933 19.6891 28.459 18.5474C27.5569 17.1449 26.8664 15.6009 26.1445 14.0894C25.4247 12.5823 24.8461 11.004 24.0623 9.53335C23.8114 9.06262 23.0957 7.92355 22.4936 9.12943C20.7822 12.5574 19.1062 16.014 18.6526 19.9151C18.4758 21.4363 18.3618 23.1124 16.9301 24.0969C15.2756 25.2346 13.5103 26.2097 11.8237 27.3027C9.30815 28.9329 7.26984 31.0398 6.50545 33.9894C5.47372 37.9706 3.66091 41.7189 3.35619 45.9324C3.14109 48.9067 2.41813 51.8199 3.06393 54.8414C4.48456 61.4881 8.5361 66.1196 14.3079 69.2703C16.2444 70.3274 18.6842 70.4187 20.7485 71.2944C25.7249 73.4052 31.0091 74.1883 36.2725 74.6399C39.6887 74.9331 43.2099 74.1071 46.6746 73.7015C49.9447 73.3186 53.2242 72.9482 56.4591 72.353C59.4693 71.7991 62.6424 71.4033 65.3388 70.1C67.5357 69.0382 69.3247 66.8971 70.9507 64.9478C73.0439 62.4383 74.8526 59.6757 75.6355 56.3995C76.0775 54.5505 76.5378 52.7058 76.9898 50.5201Z" fill="#FFFFFE"/>
<path d="M37.069 44.672C37.8342 43.1522 39.034 42.2237 40.5444 42.2784C42.1358 42.336 43.9975 44.3943 44.0611 45.9112C44.0874 46.5388 43.7601 47.2691 43.3857 47.8085C42.4293 49.1867 42.7719 50.746 44.4758 51.1618C46.0214 51.539 47.7754 51.9708 49.055 50.3241C49.6979 49.4968 50.6675 49.2433 51.2993 50.0356C51.6903 50.5259 51.6946 51.6314 51.4272 52.276C50.876 53.6047 48.1438 54.8097 46.7733 54.3954C45.0267 53.8674 43.0186 54.0489 41.5912 52.5157C41.4433 52.3568 40.3238 52.7135 40.0759 53.1005C38.5465 55.4885 34.5586 56.2361 32.2545 54.7294C31.7862 54.4231 31.559 53.7481 31.2207 53.2431C31.9044 52.8829 32.013 51.811 33.3497 52.2232C36.5291 53.2037 37.3256 53.0525 38.6448 50.029C38.8115 49.647 38.6749 48.9089 38.3916 48.5947C37.388 47.4817 36.823 46.2686 37.069 44.672Z" fill="#FFFFFE"/>
<path d="M29.1865 34.7554C27.0053 34.3034 24.9615 33.9547 22.9982 33.3464C22.2534 33.1157 21.6938 32.2872 21.0498 31.7312C21.475 31.2405 21.8678 30.7143 22.3441 30.2797C22.4964 30.1407 22.8904 30.1744 23.1391 30.2474C25.9022 31.0586 28.6852 31.8165 31.4004 32.7672C32.23 33.0577 33.3775 33.8351 33.4558 34.4985C33.5401 35.2135 32.661 36.1824 31.9917 36.8192C30.1174 38.6024 28.1878 40.338 26.1689 41.9535C25.3281 42.6263 24.4802 43.9414 23.0326 42.7007C21.8953 41.726 22.4545 40.8434 23.2245 40.2675C25.2222 38.7732 27.3617 37.4692 29.3886 36.0115C29.5799 35.8739 29.3763 35.1872 29.1865 34.7554Z" fill="#FFFFFE"/>
<path d="M58.5974 39.7561C57.7132 40.7183 56.8184 40.4202 55.9636 39.9925C53.8576 38.9388 51.728 37.9208 49.6894 36.7469C47.768 35.6405 47.8954 34.3454 49.744 32.976C51.3256 31.8045 52.8089 30.4888 54.2554 29.1501C55.2207 28.2566 56.0866 28.1103 56.9546 29.1448C57.8899 30.2594 56.9443 30.9517 56.2387 31.5757C55.31 32.397 54.2757 33.0978 53.3013 33.8688C52.114 34.8083 52.6344 35.3339 53.7472 35.7817C55.0533 36.3073 56.3622 36.8431 57.6108 37.4887C58.4333 37.9139 59.2993 38.4697 58.5974 39.7561Z" fill="#FFFFFE"/>
</g>
<defs>
<clipPath id="clip0_48_1757">
<rect width="80" height="80" fill="white" transform="translate(0 0.161621)"/>
</clipPath>
</defs>
</svg>
