<svg width="80" height="81" viewBox="0 0 80 81" fill="none" xmlns="http://www.w3.org/2000/svg">
<g clip-path="url(#clip0_48_1723)">
<path d="M79.3404 53.5009C78.9863 56.6564 78.0197 59.4662 76.4208 61.9739C74.7739 64.5567 72.892 66.9948 71.0351 69.4371C68.7712 72.4148 65.4578 73.5696 61.977 74.211C58.7346 74.8084 55.436 75.0936 52.1782 75.616C48.3135 76.2356 44.4844 77.1185 40.6033 77.5784C38.5393 77.823 36.3834 77.5323 34.2954 77.2716C31.7982 76.9598 29.2998 76.5438 26.8559 75.9504C23.9419 75.2427 21.1315 74.0466 18.1944 73.5088C11.5656 72.2952 7.08011 67.9948 3.48402 62.9223C1.62323 60.2976 0.699844 56.7291 0.231653 53.4611C-0.487489 48.4414 0.549989 43.459 2.20962 38.6464C3.03141 36.2634 3.58127 33.77 4.58274 31.4696C5.88587 28.4763 8.07792 26.2025 10.9802 24.5584C12.4779 23.7099 14.0619 22.6595 15.0062 21.287C15.9775 19.8752 16.3247 17.9871 16.7562 16.2603C17.752 12.2752 19.7299 8.74129 21.7421 5.23719C22.6888 3.58856 23.9532 3.80624 24.9285 5.66945C26.4383 8.55349 27.9588 11.4361 29.3319 14.3859C30.2241 16.3027 31.3453 17.318 33.6616 17.1755C37.1617 16.9603 40.6853 17.0871 44.198 17.1354C45.585 17.1544 46.4496 16.7568 47.0774 15.3703C49.083 10.941 51.9246 7.03599 55.1516 3.41881C56.2619 2.17426 57.4296 2.4714 57.9035 4.12406C58.8638 7.47318 59.7653 10.8402 60.6241 14.2168C60.9821 15.6244 61.7967 16.5266 63.1111 17.0409C66.3065 18.2912 68.8304 20.2783 70.7264 23.2211C72.2227 25.5434 74.2289 27.5312 75.8249 29.797C78.0072 32.8951 79.8243 36.2761 79.96 40.1242C80.1106 44.3941 79.7966 48.6805 79.6665 52.9592C79.6627 53.0863 79.4537 53.2071 79.3404 53.5009ZM69.31 67.4414C69.7509 66.8871 70.1669 66.3106 70.6368 65.782C74.9787 60.8971 77.1278 55.1613 77.2961 48.6575C77.3254 47.5254 77.0835 46.3403 77.3386 45.268C78.3288 41.1061 77.0667 37.3406 75.0897 33.8924C73.4367 31.0094 70.9694 28.6027 69.2042 25.7721C67.2799 22.6863 64.8136 20.5475 61.3916 19.3102C60.4239 18.9603 59.5062 17.9348 58.9852 16.9881C57.454 14.2057 56.8873 11.1095 56.5539 7.97347C56.5161 7.61783 56.4026 7.27024 56.3243 6.91891C55.9438 7.09442 55.4417 7.17098 55.2042 7.46282C54.2513 8.63356 53.2994 9.82009 52.4982 11.0957C51.292 13.0163 50.1017 14.9623 49.1086 16.9971C47.9981 19.2727 46.3479 20.2746 43.8139 20.2065C39.9648 20.1031 36.1068 20.0742 32.2605 20.2205C30.0932 20.303 28.856 19.2678 28.0101 17.5318C26.7023 14.848 25.485 12.1202 24.1932 9.42838C24.0373 9.10351 23.6366 8.65194 23.3862 8.6742C23.0162 8.7071 22.4979 9.03558 22.3564 9.37067C20.9887 12.6082 19.2814 15.7096 18.7811 19.2854C18.4887 21.375 18.2151 23.5955 15.872 24.6848C14.9643 25.1068 14.1792 25.7849 13.3079 26.2943C10.1763 28.1252 7.4472 30.3905 6.28871 33.9455C5.21108 37.2524 4.2244 40.6165 3.57276 44.0271C2.87096 47.7002 2.14661 51.3619 3.11056 55.2245C4.61234 61.2422 8.19863 65.4353 13.3225 68.6039C15.5842 70.0025 18.1393 70.4101 20.6159 71.1068C23.9307 72.0394 27.0886 73.5323 30.6444 73.6013C32.3527 73.6344 34.045 74.2057 35.7588 74.3187C37.723 74.4482 39.7223 74.5126 41.6714 74.294C44.6038 73.9652 47.496 73.293 50.4233 72.9013C53.613 72.4747 56.8757 72.4515 60.0101 71.7931C63.3078 71.1004 66.7694 70.4607 69.31 67.4414Z" fill="#FFFFFE"/>
<path d="M50.1842 41.1754C47.8567 39.1483 46.3347 36.8038 46.0191 33.7856C45.7369 31.0864 47.6592 29.5313 49.417 28.2789C53.995 25.0168 58.5684 26.5118 61.5854 30.8072C64.004 34.2506 61.9457 39.7533 57.5721 41.2653C55.1289 42.1099 52.7029 42.4634 50.1842 41.1754ZM48.0591 32.59C47.9518 32.7094 47.7292 32.8676 47.7544 32.9425C48.2586 34.4441 50.2515 35.4972 51.8656 35.1401C53.3577 34.81 54.7005 33.1399 54.4737 31.6389C54.3872 31.0658 53.893 30.2673 53.3996 30.0919C51.1504 29.2923 49.3494 30.0918 48.0591 32.59ZM56.5595 34.9701C55.7654 35.6989 55.2763 36.4687 56.0504 37.5307C56.9044 38.7024 58.0304 38.7977 59.2645 38.3727C60.4398 37.9679 60.3849 36.9243 60.2799 35.9859C60.1389 34.7242 58.396 34.1729 56.5595 34.9701Z" fill="#FFFFFE"/>
<path d="M34.4585 33.4401C34.438 35.2946 34.6612 36.9845 33.6367 38.5427C32.3013 40.5735 30.3465 41.4961 28.0895 41.9293C26.3722 42.259 24.6694 43.0464 22.9199 41.8231C20.713 40.28 19.3342 38.3949 19.1177 35.5829C18.8487 32.0904 20.0535 29.4167 23.0299 27.6825C26.9901 25.3752 32.5812 27.2807 34.1238 32.5596C34.1963 32.8078 34.3452 33.0338 34.4585 33.4401ZM22.388 30.7199C21.0608 31.9144 21.4215 34.1007 22.2346 35.0076C23.4017 36.3096 24.637 35.9182 25.9461 35.3299C27.818 34.4887 28.1752 32.9441 28.0023 31.112C27.8685 29.6943 26.6713 28.6511 25.332 29.0608C24.3476 29.362 23.4785 30.0399 22.388 30.7199ZM30.8884 35.8202C30.0447 35.8705 29.0536 35.6682 28.4025 36.0484C27.8488 36.3717 27.687 37.3662 27.3517 38.0638C28.242 38.3979 29.1937 39.1182 30.0099 38.9881C31.8661 38.6924 32.1227 37.7591 30.8884 35.8202Z" fill="#FFFFFE"/>
<path d="M37.5187 52.1408C38.312 51.806 39.4013 51.5302 39.4529 51.123C39.5366 50.4618 39.0338 49.6515 38.6071 49.02C38.1146 48.2912 37.2594 47.7766 36.8755 47.0116C36.0828 45.4317 36.5689 43.9637 37.9643 43.0249C39.5112 41.984 41.3948 42.0067 42.5791 43.096C42.9952 43.4787 43.417 43.8646 43.7747 44.2996C44.5177 45.2032 45.0206 46.1688 44.2176 47.3124C43.91 47.7504 43.5003 48.1509 43.3178 48.6365C42.6711 50.357 43.5532 51.4664 45.3416 51.8372C48.6037 52.5133 51.8416 53.3379 54.4612 55.6331C55.3674 56.427 55.5855 57.451 54.9341 58.2584C54.3015 59.0425 53.4488 58.6013 52.6508 57.9644C48.0973 54.3298 42.8485 54.6114 37.4428 55.1242C34.3408 55.4184 31.6888 56.2452 29.3882 58.3254C29.2307 58.4677 28.4524 58.1425 28.1595 57.8426C27.9479 57.6259 27.8791 56.9303 28.0606 56.722C29.841 54.6789 32.1976 53.5735 34.7457 52.825C35.6061 52.5722 36.4806 52.3675 37.5187 52.1408Z" fill="#FFFFFE"/>
<path d="M19.4129 44.7455C20.1584 47.4646 19.7241 49.8071 17.691 51.7428C16.5879 52.793 14.8254 52.7773 13.7657 51.6788C12.3656 50.2274 12.3291 49.3251 13.6562 47.9582C14.676 46.9077 15.7372 45.8973 16.755 44.8449C17.5731 43.9992 18.4001 43.7485 19.4129 44.7455ZM17.1178 47.5506C16.4378 48.2108 15.7305 48.8467 15.1009 49.552C14.9765 49.6913 15.1509 50.0974 15.1875 50.3805C15.8416 50.1065 16.7711 50.003 17.0748 49.5122C17.3986 48.9889 18.5216 48.1876 17.1178 47.5506Z" fill="#FFFFFE"/>
</g>
<defs>
<clipPath id="clip0_48_1723">
<rect width="80" height="80" fill="white" transform="translate(0 0.161621)"/>
</clipPath>
</defs>
</svg>
