<svg width="234" height="234" viewBox="0 0 234 234" fill="none" xmlns="http://www.w3.org/2000/svg">
<g clip-path="url(#clip0_37_1140)">
<path d="M225.724 176.057C218.751 190.096 210.132 202.662 197.226 211.08C191.122 215.061 183.311 216.971 175.997 218.412C166.788 220.227 157.272 220.421 147.932 221.65C139.826 222.717 131.814 224.537 123.698 225.488C117.089 226.262 110.311 227.028 103.745 226.386C94.2471 225.458 84.7879 223.626 75.4738 221.478C68.1567 219.79 61.2272 216.113 53.8699 214.982C43.048 213.318 34.0075 208.686 25.9967 201.719C14.3212 191.564 4.94609 180.007 1.3418 164.257C-1.08308 153.661 0.337434 143.514 1.27331 133.017C2.40103 120.369 7.20582 108.892 10.6363 97.0045C13.7136 86.3407 20.6985 78.3245 30.2077 72.1072C36.2892 68.1309 44.2566 64.7051 45.9621 56.9185C48.8709 43.6375 54.0644 31.4373 60.2481 19.517C60.8883 18.2829 61.5842 17.0658 62.3732 15.9228C66.5988 9.80182 69.5437 9.98284 73.1376 16.9283C77.2981 24.9689 81.4 33.0601 85.0376 41.3443C87.6637 47.3248 91.3966 49.9256 98.1602 49.5359C107.91 48.9741 117.737 49.0184 127.491 49.5442C132.652 49.8225 136.153 48.1934 137.802 43.6906C142.25 31.5456 151.086 22.268 158.175 11.8647C159.615 9.75152 162.944 6.96476 164.572 7.42491C166.721 8.03233 168.826 11.3025 169.593 13.8385C172.277 22.7153 174.346 31.777 176.716 40.7506C177.692 44.4462 179.463 47.2326 183.449 48.8149C192.997 52.6053 200.613 58.8283 206.436 67.5213C211.972 75.7867 218.545 83.3528 224.204 91.5428C229.464 99.1565 232.6 107.809 233.379 117.05C234.872 134.756 233.842 152.287 228.442 169.366C227.75 171.555 226.802 173.662 225.724 176.057ZM159.779 23.0143C155.134 30.2108 149.885 37.0981 145.997 44.6825C141.176 54.0849 135.368 59.9036 123.685 58.5576C114.685 57.5206 105.426 57.7977 96.3634 58.5124C87.9405 59.1766 83.2233 55.5962 80.0985 48.316C77.0156 41.1335 73.4447 34.1619 70.2732 27.0156C68.8574 23.8254 66.9486 23.0121 65.3049 26.2434C60.268 36.1452 55.6814 46.1894 54.0771 57.4497C53.4502 61.8491 51.6595 66.8905 48.6683 69.9447C44.7662 73.929 39.2764 76.4734 34.2328 79.1991C25.9187 83.6922 20.5698 90.8764 17.6329 99.3043C13.8803 110.073 11.2155 121.261 8.72986 132.414C7.31503 138.761 5.76606 145.634 6.79785 151.852C8.68469 163.223 10.9916 174.892 19.4412 183.837C25.296 190.035 30.3078 197.432 38.6051 200.597C49.2121 204.642 59.9822 208.341 70.8763 211.524C78.6334 213.791 86.6447 215.724 94.663 216.422C104.264 217.257 114.044 217.246 123.654 216.464C136.282 215.437 148.827 213.35 161.395 211.622C167.797 210.742 174.304 210.157 180.515 208.506C186.095 207.022 191.907 205.082 196.568 201.838C201.278 198.56 205.016 193.679 208.626 189.066C219.22 175.527 225.006 160.123 225.462 142.844C225.55 139.53 224.849 136.066 225.585 132.922C228.55 120.255 224.831 108.901 218.836 98.1871C215.403 92.0508 210.707 86.6273 206.659 80.8271C199.275 70.2461 191.57 60.07 178.6 55.7012C177.317 55.269 176.109 54.2721 175.152 53.2663C167.281 45.0015 167.014 34.0242 164.773 23.7588C164.471 22.375 164.398 20.9411 164.22 19.5304C162.739 20.3599 161.259 21.1894 159.779 23.0143Z" fill="#FFFFFE"/>
<path d="M116.977 123.052C122.457 122.316 125.325 125.617 126.711 129.321C127.825 132.3 127.994 136.432 126.789 139.299C124.712 144.24 126.154 148.572 131.598 148.836C136.487 149.073 141.874 150.399 145.488 145.023C146.03 144.217 149.344 144.029 149.569 144.472C150.55 146.404 151.931 149.144 151.23 150.74C148.451 157.064 142.453 160.208 135.471 158.749C131.031 157.821 126.774 155.769 122.615 153.834C120.08 152.656 118.739 152.196 116.861 155.161C111.853 163.067 98.9365 164.558 93.0107 158.219C92.2382 157.393 91.4849 155.192 91.7978 154.935C93.427 153.594 95.3191 152.044 97.2827 151.78C99.4922 151.483 101.859 152.626 104.186 152.881C108.389 153.342 110.777 151.414 112.252 147.346C113.539 143.795 113.186 141.319 110.379 138.767C106.137 134.909 106.633 126.924 116.977 123.052Z" fill="#FFFFFE"/>
<path d="M153.558 107.872C150.101 111.142 146.771 111.242 143.546 108.276C139.319 104.387 138.694 100.735 141.418 97.1176C144.334 93.2459 148.11 92.1713 151.723 94.1851C156.213 96.6874 157.064 102.175 153.558 107.872Z" fill="#FFFFFE"/>
<path d="M78.1562 102.148C79.321 100.154 80.3507 98.5236 81.676 97.186C85.5935 93.2318 87.5276 93.2039 91.213 96.7902C94.4998 99.9885 95.0799 105.449 92.4333 108.277C89.3993 111.518 82.6629 110.379 79.5797 106.005C78.895 105.033 78.6199 103.773 78.1562 102.148Z" fill="#FFFFFE"/>
</g>
<defs>
<clipPath id="clip0_37_1140">
<rect width="234" height="234" fill="white"/>
</clipPath>
</defs>
</svg>
