<?xml version="1.0" encoding="utf-8"?><!DOCTYPE svg PUBLIC "-//W3C//DTD SVG 1.1//EN" "http://www.w3.org/Graphics/SVG/1.1/DTD/svg11.dtd"><svg version="1.1" id="Contours" xmlns="http://www.w3.org/2000/svg" xmlns:xlink="http://www.w3.org/1999/xlink" x="0px" y="0px" width="235.967209px" height="235.967209px" viewBox="-0.000000 0.000000 235.967209 219.277481" enable-background="new 0 0 235.967209 235.967209" xml:space="preserve" stroke="black" fill="none" stroke-linecap='round' stroke-linejoin='round'><path class="selected"  fill="#000000" opacity="1.000000" stroke="none" 
 	d="
M6.088459 168.692317 C2.557048 159.185481 -0.976540 149.966288 0.247421 140.207453 C1.769617 128.070750 2.245152 115.679713 7.069250 104.091555 C8.666147 100.255595 9.131963 95.964320 10.359220 91.956019 C14.098264 79.744052 21.771619 70.549388 32.484603 63.817095 C41.422782 58.200129 46.767429 50.878874 49.539329 40.068671 C52.556297 28.302744 58.956920 17.375201 64.184154 6.223616 C65.692707 3.005328 71.068378 4.168700 73.067768 8.055419 C77.798824 17.252337 82.517612 26.458148 87.049068 35.754099 C89.405086 40.587294 92.504612 43.121302 98.354702 42.824832 C107.993480 42.336375 117.695331 42.314189 127.331104 42.831339 C133.299259 43.151644 137.044834 40.651480 139.003162 35.691752 C143.762592 23.637822 152.449604 14.196850 159.675022 3.797583 C160.990863 1.903720 164.109821 -0.354477 165.807560 0.046800 C167.891223 0.539291 170.241291 3.384350 170.928516 5.676436 C173.340671 13.721510 175.152637 21.950770 177.067371 30.139353 C178.500263 36.267275 181.133518 40.587126 187.713886 43.196158 C195.199085 46.163947 201.512561 51.511141 206.370182 58.373232 C212.247089 66.675234 218.804187 74.497950 224.628452 82.834445 C232.183109 93.647730 236.593219 105.887850 235.894992 119.046855 C235.080799 134.391764 235.960880 150.243372 228.972263 164.585230 C225.035068 172.665049 220.366993 180.484873 215.190921 187.831965 C211.571720 192.969172 206.632663 197.206843 202.107654 201.668299 C195.835239 207.852656 187.112094 208.395289 179.302066 210.441065 C171.181079 212.568278 162.513385 212.537669 154.124515 213.730235 C142.834781 215.335185 131.626804 217.624064 120.299060 218.812495 C113.293186 219.547495 106.059261 219.376917 99.055439 218.541789 C90.340663 217.502635 81.702976 215.594035 73.138271 213.603617 C68.051220 212.421382 63.260044 209.970225 58.174694 208.775553 C48.437610 206.488032 38.837406 204.066935 30.707721 197.817896 C20.513179 189.981669 11.505037 181.133723 6.088459 168.692317 M227.088474 140.192317 C227.421802 134.496256 227.631183 128.789698 228.112918 123.106226 C229.306781 109.021227 224.785389 96.536768 216.980060 85.236369 C211.451602 77.232401 204.903614 69.940127 199.147449 62.083483 C194.872089 56.247996 189.325046 52.362441 182.780292 49.714907 C178.610446 48.028090 174.091602 46.403231 172.766193 41.734870 C170.214176 32.746306 168.288211 23.580353 166.075275 14.494628 C165.842212 13.537716 165.426258 12.625351 165.095157 11.692313 C164.123218 12.162020 162.748951 12.367869 162.241230 13.142026 C156.839283 21.378882 150.849109 29.343485 146.472126 38.107821 C141.888370 47.286253 136.059970 51.810904 125.356891 50.887614 C114.935924 49.988661 104.369930 50.472415 93.881389 50.795809 C89.412166 50.933611 86.108333 49.253459 83.942325 45.885924 C81.281482 41.749098 79.244754 37.194972 77.115451 32.736601 C74.992359 28.291243 73.285938 23.635939 70.973926 19.298091 C70.233898 17.909628 68.122768 14.549841 66.346942 18.106684 C61.298832 28.217669 56.355350 38.413424 55.017658 49.920046 C54.496048 54.406844 54.159870 59.350825 49.936939 62.254557 C45.056667 65.610262 39.849865 68.486651 34.875129 71.710490 C27.455230 76.518908 21.443042 82.733233 19.188400 91.433398 C16.145233 103.176302 10.798173 114.232295 9.899395 126.660365 C9.264936 135.433482 7.132485 144.026209 9.037344 152.938410 C13.227607 172.543253 25.178009 186.204447 42.202316 195.497599 C47.914302 198.615656 55.110618 198.885111 61.199520 201.467860 C75.877948 207.694087 91.464191 210.003733 106.989048 211.335887 C117.065509 212.200526 127.451557 209.764292 137.670902 208.567896 C147.316349 207.438670 156.989460 206.346156 166.531330 204.590357 C175.409977 202.956599 184.769290 201.789073 192.722644 197.945124 C199.202777 194.813227 204.479404 188.497828 209.275425 182.748042 C215.449482 175.346171 220.784458 167.197459 223.093860 157.534205 C224.397312 152.080195 225.755115 146.639185 227.088474 140.192317 z"/><path class="selected"  fill="#000000" opacity="1.000000" stroke="none" 
 	d="
M109.338459 122.942317 C111.595523 118.459597 115.134517 115.720889 119.589664 115.882174 C124.283634 116.052119 129.774799 122.123057 129.962314 126.597376 C130.039905 128.448634 129.074466 130.602747 127.970356 132.193705 C125.149112 136.258921 126.159793 140.858164 131.185627 142.084681 C135.744403 143.197199 140.918018 144.470622 144.692310 139.613734 C146.588565 137.173548 149.448444 136.425837 151.312107 138.762660 C152.465473 140.208842 152.477939 143.469645 151.689212 145.371058 C150.063541 149.290064 142.004566 152.844370 137.962284 151.622340 C132.810413 150.064860 126.887348 150.600230 122.677036 146.077845 C122.240955 145.609431 118.938907 146.661524 118.207798 147.803034 C113.696582 154.846568 101.933994 157.051524 95.137851 152.607447 C93.756465 151.704157 93.086429 149.713038 92.088459 148.223399 C94.104999 147.161112 94.425388 143.999369 98.368076 145.215266 C107.745998 148.107371 110.095394 147.661311 113.986599 138.743220 C114.478221 137.616496 114.075168 135.439295 113.239566 134.512568 C110.279438 131.229685 108.612903 127.651545 109.338459 122.942317 z"/><path class="selected"  fill="#000000" opacity="1.000000" stroke="none" 
 	d="
M86.088459 93.692317 C79.654682 92.358981 73.626453 91.330493 67.835414 89.536433 C65.638607 88.855860 63.988010 86.412173 62.088459 84.772090 C63.342517 83.324778 64.501110 81.772845 65.906040 80.490870 C66.355289 80.080950 67.517482 80.180346 68.251026 80.395701 C76.400936 82.788333 84.609752 85.023821 92.618404 87.827982 C95.065479 88.684802 98.450260 90.977847 98.681087 92.934565 C98.929874 95.043452 96.336803 97.901415 94.362461 99.779765 C88.834041 105.039370 83.142574 110.158846 77.187572 114.923884 C74.707653 116.908251 72.206646 120.787180 67.936801 117.127696 C64.582462 114.252848 66.231884 111.649500 68.502941 109.950755 C74.395465 105.543200 80.705829 101.696993 86.684459 97.397357 C87.248775 96.991526 86.648204 94.965907 86.088459 93.692317 z"/><path class="selected"  fill="#000000" opacity="1.000000" stroke="none" 
 	d="
M172.838459 108.442317 C170.230274 111.280421 167.591098 110.401187 165.069889 109.139712 C158.857944 106.031611 152.576602 103.028910 146.563526 99.566401 C140.896213 96.302989 141.271946 92.482859 146.724567 88.443903 C151.389713 84.988253 155.764835 81.107592 160.031208 77.158824 C162.878604 74.523402 165.432575 74.092074 167.993000 77.143466 C170.751575 80.431010 167.962574 82.472880 165.881198 84.313616 C163.142002 86.736125 160.091129 88.803072 157.217212 91.077174 C153.715015 93.848437 155.249958 95.398593 158.532459 96.719561 C162.384952 98.269900 166.245426 99.850276 169.928333 101.754405 C172.354404 103.008715 174.908603 104.647967 172.838459 108.442317 z"/></svg>